<svg width="22" height="26" viewBox="0 0 22 26" fill="none" xmlns="http://www.w3.org/2000/svg">
<path d="M18.5 3.60001C16.5108 1.61089 13.813 0.493408 11 0.493408C8.18693 0.493408 5.4891 1.61089 3.49997 3.60001C1.51085 5.58913 0.393372 8.28696 0.393372 11.1C0.393372 13.9131 1.51085 16.6109 3.49997 18.6L10.0875 25.2C10.2037 25.3172 10.3419 25.4102 10.4943 25.4736C10.6466 25.5371 10.81 25.5698 10.975 25.5698C11.14 25.5698 11.3034 25.5371 11.4557 25.4736C11.608 25.4102 11.7463 25.3172 11.8625 25.2L18.5 18.5375C20.4808 16.5567 21.5936 13.8701 21.5936 11.0688C21.5936 8.26744 20.4808 5.58086 18.5 3.60001ZM16.7125 16.75L11 22.4875L5.28747 16.75C4.1589 15.6204 3.39057 14.1816 3.07959 12.6154C2.76862 11.0492 2.92896 9.42594 3.54035 7.95086C4.15175 6.47578 5.18674 5.21507 6.51451 4.32811C7.84228 3.44114 9.4032 2.96774 11 2.96774C12.5967 2.96774 14.1577 3.44114 15.4854 4.32811C16.8132 5.21507 17.8482 6.47578 18.4596 7.95086C19.071 9.42594 19.2313 11.0492 18.9204 12.6154C18.6094 14.1816 17.841 15.6204 16.7125 16.75ZM7.24997 7.26251C6.24087 8.27472 5.67422 9.64572 5.67422 11.075C5.67422 12.5043 6.24087 13.8753 7.24997 14.8875C7.99967 15.6385 8.95446 16.1514 9.99454 16.3618C11.0346 16.5722 12.1137 16.4707 13.0963 16.0702C14.079 15.6697 14.9215 14.9879 15.5181 14.1103C16.1147 13.2328 16.4389 12.1986 16.45 11.1375C16.4556 10.429 16.3191 9.72658 16.0486 9.07174C15.7781 8.41691 15.379 7.82296 14.875 7.32501C14.3796 6.81823 13.7888 6.41443 13.1368 6.13684C12.4847 5.85925 11.7841 5.71335 11.0755 5.70755C10.3668 5.70174 9.66397 5.83613 9.00744 6.10299C8.3509 6.36986 7.75362 6.76392 7.24997 7.26251ZM13.1125 13.1125C12.6388 13.5934 12.0127 13.8949 11.3414 13.9653C10.67 14.0358 9.99505 13.8708 9.43186 13.4987C8.86866 13.1265 8.45222 12.5703 8.25373 11.9251C8.05524 11.2799 8.08703 10.5858 8.34367 9.96145C8.60031 9.3371 9.06585 8.82128 9.6607 8.50218C10.2556 8.18308 10.9428 8.08052 11.6049 8.21203C12.267 8.34354 12.8629 8.70096 13.2906 9.22317C13.7184 9.74539 13.9514 10.4 13.95 11.075C13.9318 11.8466 13.6081 12.5794 13.05 13.1125H13.1125Z" fill="#0D2F29" fill-opacity="0.5"/>
</svg>
