<svg width="28" height="32" viewBox="0 0 28 32" fill="none" xmlns="http://www.w3.org/2000/svg">
<path d="M23.5 4.09323C20.9804 1.57368 17.5632 0.158203 14 0.158203C10.4368 0.158203 7.01953 1.57368 4.49997 4.09323C1.98041 6.61279 0.564941 10.03 0.564941 13.5932C0.564941 17.1564 1.98041 20.5737 4.49997 23.0932L12.8441 31.4532C12.9913 31.6016 13.1664 31.7194 13.3594 31.7998C13.5523 31.8802 13.7593 31.9216 13.9683 31.9216C14.1773 31.9216 14.3843 31.8802 14.5772 31.7998C14.7702 31.7194 14.9453 31.6016 15.0925 31.4532L23.5 23.0141C26.009 20.505 27.4186 17.102 27.4186 13.5536C27.4186 10.0053 26.009 6.60231 23.5 4.09323ZM21.2358 20.7499L14 28.0174L6.76414 20.7499C5.33462 19.3191 4.36139 17.4965 3.96749 15.5127C3.57358 13.5288 3.77669 11.4727 4.55112 9.60431C5.32555 7.73587 6.63655 6.13898 8.31839 5.01549C10.0002 3.892 11.9774 3.29235 14 3.29235C16.0225 3.29235 17.9997 3.892 19.6816 5.01549C21.3634 6.13898 22.6744 7.73587 23.4488 9.60431C24.2233 11.4727 24.4264 13.5288 24.0325 15.5127C23.6385 17.4965 22.6653 19.3191 21.2358 20.7499ZM9.24997 8.7324C7.97177 10.0145 7.25401 11.7511 7.25401 13.5616C7.25401 15.372 7.97177 17.1086 9.24997 18.3907C10.1996 19.342 11.409 19.9916 12.7264 20.2581C14.0438 20.5246 15.4106 20.3962 16.6553 19.8888C17.9 19.3815 18.9672 18.5178 19.7229 17.4063C20.4786 16.2947 20.8893 14.9848 20.9033 13.6407C20.9104 12.7433 20.7376 11.8536 20.3949 11.0241C20.0522 10.1946 19.5467 9.4423 18.9083 8.81157C18.2808 8.16965 17.5325 7.65817 16.7066 7.30655C15.8806 6.95494 14.9933 6.77013 14.0956 6.76278C13.198 6.75542 12.3077 6.92565 11.4761 7.26368C10.6445 7.60171 9.88793 8.10085 9.24997 8.7324ZM16.6758 16.1424C16.0758 16.7516 15.2828 17.1334 14.4324 17.2226C13.582 17.3119 12.7271 17.1029 12.0137 16.6315C11.3003 16.1602 10.7728 15.4556 10.5214 14.6384C10.27 13.8211 10.3102 12.9419 10.6353 12.1511C10.9604 11.3602 11.5501 10.7068 12.3036 10.3026C13.057 9.89845 13.9275 9.76854 14.7662 9.93512C15.6049 10.1017 16.3596 10.5544 16.9014 11.2159C17.4433 11.8774 17.7385 12.7065 17.7366 13.5616C17.7136 14.5389 17.3036 15.4671 16.5966 16.1424H16.6758Z" fill="#212121"/>
</svg>
