<svg width="29" height="32" viewBox="0 0 29 32" fill="none" xmlns="http://www.w3.org/2000/svg">
<path d="M22.3492 12C20.9138 12 19.5945 11.5113 18.553 10.6941L12.046 14.6974C12.2387 15.5555 12.2387 16.4446 12.046 17.3026L18.553 21.306C19.5945 20.4887 20.9138 20 22.3492 20C25.7155 20 28.4444 22.6863 28.4444 26C28.4444 29.3137 25.7155 32 22.3492 32C18.9829 32 16.254 29.3137 16.254 26C16.254 25.5526 16.3041 25.1169 16.3985 24.6974L9.89143 20.6941C8.84997 21.5113 7.53067 22 6.09524 22C2.72895 22 0 19.3137 0 16C0 12.6863 2.72895 10 6.09524 10C7.53067 10 8.84997 10.4887 9.89143 11.3059L16.3985 7.30256C16.3023 6.87485 16.2538 6.43807 16.254 6C16.254 2.68631 18.9829 0 22.3492 0C25.7155 0 28.4444 2.68631 28.4444 6C28.4444 9.31369 25.7155 12 22.3492 12Z" fill="#0D2F29"/>
</svg>
