<svg width="23" height="22" viewBox="0 0 23 22" fill="none" xmlns="http://www.w3.org/2000/svg">
<path d="M22.3799 9.97789C22.6377 9.78534 22.829 9.51673 22.9269 9.20972C23.0248 8.9027 23.0243 8.57269 22.9256 8.26594C22.8269 7.95919 22.6349 7.6911 22.3765 7.49924C22.1181 7.30739 21.8063 7.2014 21.4848 7.19614L15.24 6.95969C15.2092 6.95757 15.1798 6.94659 15.1552 6.92808C15.1306 6.90957 15.1118 6.88432 15.1012 6.85538L12.9432 1.01371C12.8348 0.716503 12.6379 0.459871 12.3791 0.278556C12.1204 0.0972405 11.8123 0 11.4965 0C11.1808 0 10.8727 0.0972405 10.6139 0.278556C10.3552 0.459871 10.1582 0.716503 10.0498 1.01371L7.89882 6.87624C7.88819 6.90519 7.86943 6.93044 7.84481 6.94895C7.82019 6.96745 7.79075 6.97843 7.76005 6.98056L1.51523 7.217C1.1937 7.22227 0.881869 7.32826 0.623469 7.52011C0.365069 7.71196 0.173056 7.98006 0.0743529 8.2868C-0.02435 8.59355 -0.0247928 8.92357 0.0730865 9.23058C0.170966 9.53759 0.362259 9.8062 0.620143 9.99875L5.51885 13.8584C5.54337 13.8778 5.5617 13.9039 5.57156 13.9335C5.58143 13.9632 5.5824 13.9951 5.57436 14.0253L3.88826 20.013C3.80089 20.318 3.80935 20.6424 3.91251 20.9424C4.01566 21.2423 4.20849 21.5031 4.46476 21.6892C4.72104 21.8754 5.02832 21.978 5.3448 21.9829C5.66128 21.9878 5.9716 21.895 6.23354 21.7169L11.4098 18.2397C11.4353 18.222 11.4655 18.2126 11.4965 18.2126C11.5275 18.2126 11.5578 18.222 11.5833 18.2397L16.7595 21.7169C17.0179 21.901 17.3271 22 17.6442 22C17.9613 22 18.2705 21.901 18.5289 21.7169C18.7852 21.5324 18.9782 21.2729 19.0814 20.974C19.1845 20.6751 19.1927 20.3516 19.1048 20.0478L17.4048 14.0392C17.3958 14.0091 17.3963 13.9769 17.4062 13.947C17.4162 13.9171 17.4351 13.8911 17.4603 13.8723L22.3799 9.97789Z" fill="#E0BE36"/>
</svg>
